<svg width="12" height="14" viewBox="0 0 12 14" fill="currentColor" xmlns="http://www.w3.org/2000/svg">
<path d="M1.33335 7.00004C1.15654 7.00004 0.986974 7.07028 0.861949 7.1953C0.736925 7.32033 0.666687 7.4899 0.666687 7.66671V13C0.666687 13.1769 0.736925 13.3464 0.861949 13.4714C0.986974 13.5965 1.15654 13.6667 1.33335 13.6667C1.51016 13.6667 1.67973 13.5965 1.80476 13.4714C1.92978 13.3464 2.00002 13.1769 2.00002 13V7.66671C2.00002 7.4899 1.92978 7.32033 1.80476 7.1953C1.67973 7.07028 1.51016 7.00004 1.33335 7.00004ZM4.66669 0.333374C4.48988 0.333374 4.32031 0.403612 4.19528 0.528636C4.07026 0.65366 4.00002 0.82323 4.00002 1.00004V13C4.00002 13.1769 4.07026 13.3464 4.19528 13.4714C4.32031 13.5965 4.48988 13.6667 4.66669 13.6667C4.8435 13.6667 5.01307 13.5965 5.13809 13.4714C5.26312 13.3464 5.33335 13.1769 5.33335 13V1.00004C5.33335 0.82323 5.26312 0.65366 5.13809 0.528636C5.01307 0.403612 4.8435 0.333374 4.66669 0.333374ZM11.3334 9.66671C11.1565 9.66671 10.987 9.73695 10.8619 9.86197C10.7369 9.98699 10.6667 10.1566 10.6667 10.3334V13C10.6667 13.1769 10.7369 13.3464 10.8619 13.4714C10.987 13.5965 11.1565 13.6667 11.3334 13.6667C11.5102 13.6667 11.6797 13.5965 11.8048 13.4714C11.9298 13.3464 12 13.1769 12 13V10.3334C12 10.1566 11.9298 9.98699 11.8048 9.86197C11.6797 9.73695 11.5102 9.66671 11.3334 9.66671ZM8.00002 4.33337C7.82321 4.33337 7.65364 4.40361 7.52862 4.52864C7.40359 4.65366 7.33335 4.82323 7.33335 5.00004V13C7.33335 13.1769 7.40359 13.3464 7.52862 13.4714C7.65364 13.5965 7.82321 13.6667 8.00002 13.6667C8.17683 13.6667 8.3464 13.5965 8.47142 13.4714C8.59645 13.3464 8.66669 13.1769 8.66669 13V5.00004C8.66669 4.82323 8.59645 4.65366 8.47142 4.52864C8.3464 4.40361 8.17683 4.33337 8.00002 4.33337Z" />
</svg>
