<svg width="17" height="16" viewBox="0 0 17 16" fill="none" xmlns="http://www.w3.org/2000/svg">
<path d="M12.5 5.33331C12.5 4.27245 12.0786 3.25503 11.3284 2.50489C10.5783 1.75474 9.56087 1.33331 8.5 1.33331C7.43913 1.33331 6.42172 1.75474 5.67157 2.50489C4.92143 3.25503 4.5 4.27245 4.5 5.33331C4.5 9.99998 2.5 11.3333 2.5 11.3333H14.5C14.5 11.3333 12.5 9.99998 12.5 5.33331Z" stroke="currentColor" stroke-width="1.4" stroke-linecap="round" stroke-linejoin="round"/>
<path d="M9.65335 14C9.53614 14.2021 9.36791 14.3698 9.1655 14.4864C8.96309 14.6029 8.7336 14.6643 8.50001 14.6643C8.26643 14.6643 8.03694 14.6029 7.83453 14.4864C7.63212 14.3698 7.46389 14.2021 7.34668 14" stroke="currentColor" stroke-width="1.4" stroke-linecap="round" stroke-linejoin="round"/>
</svg>
