<svg width="15" height="14" viewBox="0 0 15 14" fill="currentColor" xmlns="http://www.w3.org/2000/svg">
<path d="M7.49998 4.99998C7.36813 4.99998 7.23923 5.03908 7.1296 5.11233C7.01997 5.18559 6.93452 5.28971 6.88406 5.41152C6.8336 5.53334 6.8204 5.66739 6.84612 5.79671C6.87185 5.92603 6.93534 6.04482 7.02858 6.13805C7.12181 6.23129 7.2406 6.29478 7.36992 6.3205C7.49924 6.34623 7.63329 6.33302 7.7551 6.28257C7.87692 6.23211 7.98104 6.14666 8.05429 6.03703C8.12755 5.92739 8.16665 5.7985 8.16665 5.66665C8.16665 5.48984 8.09641 5.32027 7.97138 5.19524C7.84636 5.07022 7.67679 4.99998 7.49998 4.99998ZM12.1666 0.333313H2.83331C2.30288 0.333313 1.79417 0.544027 1.4191 0.9191C1.04403 1.29417 0.833313 1.80288 0.833313 2.33331V8.99998C0.833313 9.53041 1.04403 10.0391 1.4191 10.4142C1.79417 10.7893 2.30288 11 2.83331 11H10.56L13.0266 13.4733C13.0889 13.5351 13.1628 13.584 13.244 13.6172C13.3253 13.6503 13.4122 13.6672 13.5 13.6666C13.5874 13.6689 13.6742 13.6506 13.7533 13.6133C13.8751 13.5633 13.9793 13.4784 14.0528 13.3692C14.1264 13.2601 14.166 13.1316 14.1666 13V2.33331C14.1666 1.80288 13.9559 1.29417 13.5809 0.9191C13.2058 0.544027 12.6971 0.333313 12.1666 0.333313ZM12.8333 11.3933L11.3066 9.85998C11.2444 9.79819 11.1705 9.74931 11.0893 9.71613C11.008 9.68296 10.9211 9.66614 10.8333 9.66665H2.83331C2.6565 9.66665 2.48693 9.59641 2.36191 9.47138C2.23688 9.34636 2.16665 9.17679 2.16665 8.99998V2.33331C2.16665 2.1565 2.23688 1.98693 2.36191 1.86191C2.48693 1.73688 2.6565 1.66665 2.83331 1.66665H12.1666C12.3435 1.66665 12.513 1.73688 12.6381 1.86191C12.7631 1.98693 12.8333 2.1565 12.8333 2.33331V11.3933ZM4.83331 4.99998C4.70146 4.99998 4.57257 5.03908 4.46293 5.11233C4.3533 5.18559 4.26785 5.28971 4.21739 5.41152C4.16693 5.53334 4.15373 5.66739 4.17946 5.79671C4.20518 5.92603 4.26867 6.04482 4.36191 6.13805C4.45514 6.23129 4.57393 6.29478 4.70325 6.3205C4.83257 6.34623 4.96662 6.33302 5.08844 6.28257C5.21025 6.23211 5.31437 6.14666 5.38763 6.03703C5.46088 5.92739 5.49998 5.7985 5.49998 5.66665C5.49998 5.48984 5.42974 5.32027 5.30472 5.19524C5.17969 5.07022 5.01012 4.99998 4.83331 4.99998ZM10.1666 4.99998C10.0348 4.99998 9.9059 5.03908 9.79627 5.11233C9.68663 5.18559 9.60118 5.28971 9.55073 5.41152C9.50027 5.53334 9.48707 5.66739 9.51279 5.79671C9.53851 5.92603 9.60201 6.04482 9.69524 6.13805C9.78848 6.23129 9.90727 6.29478 10.0366 6.3205C10.1659 6.34623 10.3 6.33302 10.4218 6.28257C10.5436 6.23211 10.6477 6.14666 10.721 6.03703C10.7942 5.92739 10.8333 5.7985 10.8333 5.66665C10.8333 5.48984 10.7631 5.32027 10.6381 5.19524C10.513 5.07022 10.3435 4.99998 10.1666 4.99998Z" />
</svg>
