<svg width="15" height="14" viewBox="0 0 15 14" fill="currentColor" xmlns="http://www.w3.org/2000/svg">
<path d="M6.16665 7.66671C6.03479 7.66671 5.9059 7.70581 5.79627 7.77906C5.68663 7.85232 5.60119 7.95643 5.55073 8.07825C5.50027 8.20007 5.48707 8.33411 5.51279 8.46343C5.53851 8.59276 5.60201 8.71154 5.69524 8.80478C5.78848 8.89801 5.90727 8.96151 6.03659 8.98723C6.16591 9.01295 6.29995 8.99975 6.42177 8.94929C6.54359 8.89884 6.64771 8.81339 6.72096 8.70375C6.79421 8.59412 6.83331 8.46523 6.83331 8.33337C6.83331 8.15656 6.76308 7.98699 6.63805 7.86197C6.51303 7.73695 6.34346 7.66671 6.16665 7.66671ZM6.16665 5.00004C6.03479 5.00004 5.9059 5.03914 5.79627 5.11239C5.68663 5.18565 5.60119 5.28977 5.55073 5.41158C5.50027 5.5334 5.48707 5.66745 5.51279 5.79677C5.53851 5.92609 5.60201 6.04488 5.69524 6.13811C5.78848 6.23135 5.90727 6.29484 6.03659 6.32056C6.16591 6.34629 6.29995 6.33309 6.42177 6.28263C6.54359 6.23217 6.64771 6.14672 6.72096 6.03709C6.79421 5.92745 6.83331 5.79856 6.83331 5.66671C6.83331 5.4899 6.76308 5.32033 6.63805 5.1953C6.51303 5.07028 6.34346 5.00004 6.16665 5.00004ZM8.83331 5.00004C8.70146 5.00004 8.57257 5.03914 8.46293 5.11239C8.3533 5.18565 8.26785 5.28977 8.21739 5.41158C8.16693 5.5334 8.15373 5.66745 8.17946 5.79677C8.20518 5.92609 8.26867 6.04488 8.36191 6.13811C8.45514 6.23135 8.57393 6.29484 8.70325 6.32056C8.83257 6.34629 8.96662 6.33309 9.08844 6.28263C9.21025 6.23217 9.31437 6.14672 9.38763 6.03709C9.46088 5.92745 9.49998 5.79856 9.49998 5.66671C9.49998 5.4899 9.42974 5.32033 9.30472 5.1953C9.17969 5.07028 9.01012 5.00004 8.83331 5.00004ZM13.5 7.66671C13.6768 7.66671 13.8464 7.59647 13.9714 7.47145C14.0964 7.34642 14.1666 7.17685 14.1666 7.00004C14.1666 6.82323 14.0964 6.65366 13.9714 6.52864C13.8464 6.40361 13.6768 6.33337 13.5 6.33337H12.1666V5.00004H13.5C13.6768 5.00004 13.8464 4.9298 13.9714 4.80478C14.0964 4.67975 14.1666 4.51019 14.1666 4.33337C14.1666 4.15656 14.0964 3.98699 13.9714 3.86197C13.8464 3.73695 13.6768 3.66671 13.5 3.66671H12.0466C11.9471 3.38711 11.7866 3.13317 11.5767 2.92331C11.3669 2.71344 11.1129 2.55292 10.8333 2.45337V1.00004C10.8333 0.82323 10.7631 0.65366 10.6381 0.528636C10.513 0.403612 10.3435 0.333374 10.1666 0.333374C9.98984 0.333374 9.82027 0.403612 9.69524 0.528636C9.57022 0.65366 9.49998 0.82323 9.49998 1.00004V2.33337H8.16665V1.00004C8.16665 0.82323 8.09641 0.65366 7.97138 0.528636C7.84636 0.403612 7.67679 0.333374 7.49998 0.333374C7.32317 0.333374 7.1536 0.403612 7.02858 0.528636C6.90355 0.65366 6.83331 0.82323 6.83331 1.00004V2.33337H5.49998V1.00004C5.49998 0.82323 5.42974 0.65366 5.30472 0.528636C5.17969 0.403612 5.01012 0.333374 4.83331 0.333374C4.6565 0.333374 4.48693 0.403612 4.36191 0.528636C4.23688 0.65366 4.16665 0.82323 4.16665 1.00004V2.45337C3.88705 2.55292 3.63311 2.71344 3.42325 2.92331C3.21338 3.13317 3.05286 3.38711 2.95331 3.66671H1.49998C1.32317 3.66671 1.1536 3.73695 1.02858 3.86197C0.903551 3.98699 0.833313 4.15656 0.833313 4.33337C0.833313 4.51019 0.903551 4.67975 1.02858 4.80478C1.1536 4.9298 1.32317 5.00004 1.49998 5.00004H2.83331V6.33337H1.49998C1.32317 6.33337 1.1536 6.40361 1.02858 6.52864C0.903551 6.65366 0.833313 6.82323 0.833313 7.00004C0.833313 7.17685 0.903551 7.34642 1.02858 7.47145C1.1536 7.59647 1.32317 7.66671 1.49998 7.66671H2.83331V9.00004H1.49998C1.32317 9.00004 1.1536 9.07028 1.02858 9.1953C0.903551 9.32033 0.833313 9.4899 0.833313 9.66671C0.833313 9.84352 0.903551 10.0131 1.02858 10.1381C1.1536 10.2631 1.32317 10.3334 1.49998 10.3334H2.95331C3.05286 10.613 3.21338 10.8669 3.42325 11.0768C3.63311 11.2866 3.88705 11.4472 4.16665 11.5467V13C4.16665 13.1769 4.23688 13.3464 4.36191 13.4714C4.48693 13.5965 4.6565 13.6667 4.83331 13.6667C5.01012 13.6667 5.17969 13.5965 5.30472 13.4714C5.42974 13.3464 5.49998 13.1769 5.49998 13V11.6667H6.83331V13C6.83331 13.1769 6.90355 13.3464 7.02858 13.4714C7.1536 13.5965 7.32317 13.6667 7.49998 13.6667C7.67679 13.6667 7.84636 13.5965 7.97138 13.4714C8.09641 13.3464 8.16665 13.1769 8.16665 13V11.6667H9.49998V13C9.49998 13.1769 9.57022 13.3464 9.69524 13.4714C9.82027 13.5965 9.98984 13.6667 10.1666 13.6667C10.3435 13.6667 10.513 13.5965 10.6381 13.4714C10.7631 13.3464 10.8333 13.1769 10.8333 13V11.5467C11.1129 11.4472 11.3669 11.2866 11.5767 11.0768C11.7866 10.8669 11.9471 10.613 12.0466 10.3334H13.5C13.6768 10.3334 13.8464 10.2631 13.9714 10.1381C14.0964 10.0131 14.1666 9.84352 14.1666 9.66671C14.1666 9.4899 14.0964 9.32033 13.9714 9.1953C13.8464 9.07028 13.6768 9.00004 13.5 9.00004H12.1666V7.66671H13.5ZM10.8333 9.66671C10.8333 9.84352 10.7631 10.0131 10.6381 10.1381C10.513 10.2631 10.3435 10.3334 10.1666 10.3334H4.83331C4.6565 10.3334 4.48693 10.2631 4.36191 10.1381C4.23688 10.0131 4.16665 9.84352 4.16665 9.66671V4.33337C4.16665 4.15656 4.23688 3.98699 4.36191 3.86197C4.48693 3.73695 4.6565 3.66671 4.83331 3.66671H10.1666C10.3435 3.66671 10.513 3.73695 10.6381 3.86197C10.7631 3.98699 10.8333 4.15656 10.8333 4.33337V9.66671ZM8.83331 7.66671C8.70146 7.66671 8.57257 7.70581 8.46293 7.77906C8.3533 7.85232 8.26785 7.95643 8.21739 8.07825C8.16693 8.20007 8.15373 8.33411 8.17946 8.46343C8.20518 8.59276 8.26867 8.71154 8.36191 8.80478C8.45514 8.89801 8.57393 8.96151 8.70325 8.98723C8.83257 9.01295 8.96662 8.99975 9.08844 8.94929C9.21025 8.89884 9.31437 8.81339 9.38763 8.70375C9.46088 8.59412 9.49998 8.46523 9.49998 8.33337C9.49998 8.15656 9.42974 7.98699 9.30472 7.86197C9.17969 7.73695 9.01012 7.66671 8.83331 7.66671Z" />
</svg>
