<svg width="8" height="20" viewBox="0 0 8 20" fill="none" xmlns="http://www.w3.org/2000/svg">
<path d="M4.71 11.29C4.6149 11.199 4.50275 11.1276 4.38 11.08C4.13654 10.98 3.86346 10.98 3.62 11.08C3.49725 11.1276 3.38511 11.199 3.29 11.29L0.790002 13.79C0.601698 13.9783 0.495911 14.2337 0.495911 14.5C0.495911 14.7663 0.601698 15.0217 0.790002 15.21C0.978306 15.3983 1.2337 15.5041 1.5 15.5041C1.7663 15.5041 2.0217 15.3983 2.21 15.21L3 14.41V19C3 19.2652 3.10536 19.5196 3.2929 19.7071C3.48043 19.8946 3.73479 20 4 20C4.26522 20 4.51957 19.8946 4.70711 19.7071C4.89464 19.5196 5 19.2652 5 19V14.41L5.79 15.21C5.88297 15.3037 5.99357 15.3781 6.11543 15.4289C6.23728 15.4797 6.36799 15.5058 6.5 15.5058C6.63201 15.5058 6.76272 15.4797 6.88458 15.4289C7.00644 15.3781 7.11704 15.3037 7.21 15.21C7.30373 15.117 7.37812 15.0064 7.42889 14.8846C7.47966 14.7627 7.5058 14.632 7.5058 14.5C7.5058 14.368 7.47966 14.2373 7.42889 14.1154C7.37812 13.9936 7.30373 13.883 7.21 13.79L4.71 11.29ZM3.29 8.71C3.38511 8.80104 3.49725 8.87241 3.62 8.92C3.7397 8.97291 3.86913 9.00023 4 9.00023C4.13087 9.00023 4.2603 8.97291 4.38 8.92C4.50275 8.87241 4.6149 8.80104 4.71 8.71L7.21 6.21C7.30324 6.11676 7.3772 6.00607 7.42766 5.88425C7.47812 5.76243 7.50409 5.63186 7.50409 5.5C7.50409 5.36814 7.47812 5.23757 7.42766 5.11575C7.3772 4.99393 7.30324 4.88324 7.21 4.79C7.11676 4.69676 7.00607 4.6228 6.88425 4.57234C6.76243 4.52188 6.63186 4.49591 6.5 4.49591C6.36814 4.49591 6.23757 4.52188 6.11575 4.57234C5.99393 4.6228 5.88324 4.69676 5.79 4.79L5 5.59V1C5 0.734784 4.89464 0.48043 4.70711 0.292893C4.51957 0.105357 4.26522 0 4 0C3.73479 0 3.48043 0.105357 3.2929 0.292893C3.10536 0.48043 3 0.734784 3 1V5.59L2.21 4.79C2.11676 4.69676 2.00607 4.6228 1.88425 4.57234C1.76243 4.52188 1.63186 4.49591 1.5 4.49591C1.2337 4.49591 0.978306 4.6017 0.790002 4.79C0.696763 4.88324 0.622802 4.99393 0.572342 5.11575C0.521882 5.23757 0.495911 5.36814 0.495911 5.5C0.495911 5.7663 0.601698 6.0217 0.790002 6.21L3.29 8.71Z" fill="#51545C"/>
</svg>
