<svg width="16" height="16" viewBox="0 0 16 16" fill="none" xmlns="http://www.w3.org/2000/svg">
<path d="M4.66667 7.99998C4.66667 7.73627 4.58847 7.47848 4.44196 7.25922C4.29545 7.03995 4.08721 6.86906 3.84358 6.76814C3.59994 6.66722 3.33185 6.64082 3.07321 6.69226C2.81457 6.74371 2.57699 6.8707 2.39052 7.05717C2.20405 7.24364 2.07707 7.48122 2.02562 7.73986C1.97417 7.9985 2.00058 8.26659 2.10149 8.51022C2.20241 8.75386 2.37331 8.9621 2.59257 9.1086C2.81184 9.25511 3.06963 9.33331 3.33333 9.33331C3.68696 9.33331 4.02609 9.19284 4.27614 8.94279C4.52619 8.69274 4.66667 8.3536 4.66667 7.99998ZM11.3333 7.99998C11.3333 8.26369 11.4115 8.52147 11.558 8.74074C11.7045 8.96 11.9128 9.1309 12.1564 9.23182C12.4001 9.33273 12.6681 9.35914 12.9268 9.30769C13.1854 9.25625 13.423 9.12926 13.6095 8.94279C13.7959 8.75632 13.9229 8.51874 13.9744 8.2601C14.0258 8.00146 13.9994 7.73337 13.8985 7.48973C13.7976 7.2461 13.6267 7.03786 13.4074 6.89135C13.1882 6.74484 12.9304 6.66665 12.6667 6.66665C12.313 6.66665 11.9739 6.80712 11.7239 7.05717C11.4738 7.30722 11.3333 7.64636 11.3333 7.99998ZM6.66667 7.99998C6.66667 8.26369 6.74487 8.52147 6.89137 8.74074C7.03788 8.96 7.24612 9.1309 7.48976 9.23182C7.73339 9.33274 8.00148 9.35914 8.26012 9.30769C8.51876 9.25625 8.75634 9.12926 8.94281 8.94279C9.12928 8.75632 9.25627 8.51874 9.30771 8.2601C9.35916 8.00146 9.33276 7.73337 9.23184 7.48973C9.13092 7.2461 8.96003 7.03786 8.74076 6.89135C8.52149 6.74484 8.26371 6.66665 8 6.66665C7.64638 6.66665 7.30724 6.80712 7.05719 7.05717C6.80714 7.30722 6.66667 7.64636 6.66667 7.99998Z" fill="#8D9091"/>
</svg>
