<svg width="14" height="14" viewBox="0 0 14 14" fill="none" xmlns="http://www.w3.org/2000/svg">
<path d="M11.6666 0.333344H2.33331C1.80288 0.333344 1.29417 0.544057 0.919099 0.91913C0.544027 1.2942 0.333313 1.80291 0.333313 2.33334V9.00001C0.333313 9.53044 0.544027 10.0392 0.919099 10.4142C1.29417 10.7893 1.80288 11 2.33331 11H10.06L12.5266 13.4733C12.5889 13.5351 12.6628 13.584 12.744 13.6172C12.8253 13.6504 12.9122 13.6672 13 13.6667C13.0874 13.6689 13.1742 13.6507 13.2533 13.6133C13.3751 13.5633 13.4793 13.4784 13.5528 13.3693C13.6264 13.2601 13.666 13.1316 13.6666 13V2.33334C13.6666 1.80291 13.4559 1.2942 13.0809 0.91913C12.7058 0.544057 12.1971 0.333344 11.6666 0.333344ZM12.3333 11.3933L10.8066 9.86001C10.7444 9.79822 10.6705 9.74934 10.5893 9.71616C10.508 9.68299 10.4211 9.66617 10.3333 9.66668H2.33331C2.1565 9.66668 1.98693 9.59644 1.86191 9.47141C1.73688 9.34639 1.66665 9.17682 1.66665 9.00001V2.33334C1.66665 2.15653 1.73688 1.98696 1.86191 1.86194C1.98693 1.73691 2.1565 1.66668 2.33331 1.66668H11.6666C11.8435 1.66668 12.013 1.73691 12.1381 1.86194C12.2631 1.98696 12.3333 2.15653 12.3333 2.33334V11.3933ZM6.99998 7.00001C6.86812 7.00001 6.73923 7.03911 6.6296 7.11236C6.51997 7.18562 6.43452 7.28974 6.38406 7.41155C6.3336 7.53337 6.3204 7.66742 6.34612 7.79674C6.37185 7.92606 6.43534 8.04485 6.52857 8.13808C6.62181 8.23132 6.7406 8.29481 6.86992 8.32053C6.99924 8.34626 7.13328 8.33306 7.2551 8.2826C7.37692 8.23214 7.48104 8.14669 7.55429 8.03706C7.62755 7.92742 7.66665 7.79853 7.66665 7.66668C7.66665 7.48987 7.59641 7.3203 7.47138 7.19527C7.34636 7.07025 7.17679 7.00001 6.99998 7.00001ZM6.99998 3.00001C6.82317 3.00001 6.6536 3.07025 6.52857 3.19527C6.40355 3.3203 6.33331 3.48987 6.33331 3.66668V5.66668C6.33331 5.84349 6.40355 6.01306 6.52857 6.13808C6.6536 6.26311 6.82317 6.33334 6.99998 6.33334C7.17679 6.33334 7.34636 6.26311 7.47138 6.13808C7.59641 6.01306 7.66665 5.84349 7.66665 5.66668V3.66668C7.66665 3.48987 7.59641 3.3203 7.47138 3.19527C7.34636 3.07025 7.17679 3.00001 6.99998 3.00001Z" fill="#D53120"/>
</svg>
