<svg width="16" height="16" viewBox="0 0 16 16" fill="currentColor" xmlns="http://www.w3.org/2000/svg">
<path d="M14 7.33333H6.27331L7.80665 5.80667C7.86881 5.74451 7.91811 5.67071 7.95175 5.5895C7.98539 5.50829 8.00271 5.42124 8.00271 5.33333C8.00271 5.24543 7.98539 5.15838 7.95175 5.07717C7.91811 4.99595 7.86881 4.92216 7.80665 4.86C7.74449 4.79784 7.67069 4.74853 7.58948 4.71489C7.50827 4.68125 7.42122 4.66394 7.33331 4.66394C7.24541 4.66394 7.15836 4.68125 7.07715 4.71489C6.99593 4.74853 6.92214 4.79784 6.85998 4.86L4.19331 7.52667C4.13262 7.59007 4.08504 7.66483 4.05331 7.74667C3.98663 7.90897 3.98663 8.09103 4.05331 8.25333C4.08504 8.33517 4.13262 8.40993 4.19331 8.47333L6.85998 11.14C6.92196 11.2025 6.99569 11.2521 7.07693 11.2859C7.15817 11.3198 7.24531 11.3372 7.33331 11.3372C7.42132 11.3372 7.50846 11.3198 7.5897 11.2859C7.67094 11.2521 7.74467 11.2025 7.80665 11.14C7.86913 11.078 7.91873 11.0043 7.95257 10.9231C7.98642 10.8418 8.00385 10.7547 8.00385 10.6667C8.00385 10.5787 7.98642 10.4915 7.95257 10.4103C7.91873 10.329 7.86913 10.2553 7.80665 10.1933L6.27331 8.66667H14C14.1768 8.66667 14.3464 8.59643 14.4714 8.4714C14.5964 8.34638 14.6666 8.17681 14.6666 8C14.6666 7.82319 14.5964 7.65362 14.4714 7.5286C14.3464 7.40357 14.1768 7.33333 14 7.33333ZM1.99998 2C1.82317 2 1.6536 2.07024 1.52858 2.19526C1.40355 2.32029 1.33331 2.48986 1.33331 2.66667V13.3333C1.33331 13.5101 1.40355 13.6797 1.52858 13.8047C1.6536 13.9298 1.82317 14 1.99998 14C2.17679 14 2.34636 13.9298 2.47138 13.8047C2.59641 13.6797 2.66665 13.5101 2.66665 13.3333V2.66667C2.66665 2.48986 2.59641 2.32029 2.47138 2.19526C2.34636 2.07024 2.17679 2 1.99998 2Z" />
</svg>
