<svg width="12" height="16" viewBox="0 0 12 16" fill="currentColor" xmlns="http://www.w3.org/2000/svg">
<path fill-rule="evenodd" clip-rule="evenodd" d="M6 0C2.68648 0 0 2.68648 0 6C0 8.35707 1.35957 10.3916 3.33333 11.3724V12V13.3333C3.33333 14.4379 4.22876 15.3333 5.33333 15.3333H6.66667C7.77124 15.3333 8.66667 14.4379 8.66667 13.3333V12V11.3724C10.6404 10.3916 12 8.35707 12 6C12 2.68648 9.31352 0 6 0ZM7.33333 11.3333V10.942C7.33333 10.6704 7.49805 10.426 7.74976 10.3241C9.46135 9.63092 10.6667 7.95655 10.6667 6C10.6667 3.42286 8.57714 1.33333 6 1.33333C3.42286 1.33333 1.33333 3.42286 1.33333 6C1.33333 7.95655 2.53865 9.63092 4.25025 10.3241C4.50195 10.426 4.66667 10.6704 4.66667 10.942V11.3333H7.33333ZM4.66667 12.6667V13.3333C4.66667 13.7015 4.96514 14 5.33333 14H6.66667C7.03486 14 7.33333 13.7015 7.33333 13.3333V12.6667H4.66667Z" fill="currentColor"/>
<path fill-rule="evenodd" clip-rule="evenodd" d="M6.00002 4.00002C4.89554 4.00002 4.00002 4.89554 4.00002 6.00002C4.00002 6.36821 3.70154 6.66669 3.33335 6.66669C2.96516 6.66669 2.66669 6.36821 2.66669 6.00002C2.66669 4.15916 4.15916 2.66669 6.00002 2.66669C6.36821 2.66669 6.66669 2.96516 6.66669 3.33335C6.66669 3.70154 6.36821 4.00002 6.00002 4.00002Z" fill="currentColor"/>
</svg>
