<svg width="19" height="19" viewBox="0 0 19 19" fill="none" xmlns="http://www.w3.org/2000/svg">
<path opacity="0.3" fill-rule="evenodd" clip-rule="evenodd" d="M14.44 13.11L18.715 17.385C19.095 17.765 19.095 18.335 18.715 18.715C18.525 18.905 18.24 19 18.05 19C17.86 19 17.575 18.905 17.385 18.715L13.11 14.44C11.685 15.485 9.975 16.15 8.075 16.15C3.61 16.15 0 12.54 0 8.075C0 3.61 3.61 0 8.075 0C12.54 0 16.15 3.61 16.15 8.075C16.15 9.975 15.485 11.78 14.44 13.11ZM8.07539 1.8999C4.65539 1.8999 1.90039 4.6549 1.90039 8.0749C1.90039 11.4949 4.65539 14.2499 8.07539 14.2499C9.78539 14.2499 11.3054 13.5849 12.4454 12.4449C13.5854 11.3049 14.2504 9.7849 14.2504 8.0749C14.2504 4.6549 11.4954 1.8999 8.07539 1.8999Z" fill="black"/>
</svg>
