<svg width="17" height="16" viewBox="0 0 17 16" fill="currentColor" xmlns="http://www.w3.org/2000/svg">
<path d="M6.49998 7.33331C6.63184 7.33331 6.76073 7.29421 6.87036 7.22096C6.98 7.14771 7.06544 7.04359 7.1159 6.92177C7.16636 6.79995 7.17956 6.66591 7.15384 6.53659C7.12812 6.40727 7.06462 6.28848 6.97139 6.19524C6.87815 6.10201 6.75936 6.03851 6.63004 6.01279C6.50072 5.98707 6.36668 6.00027 6.24486 6.05073C6.12304 6.10119 6.01892 6.18663 5.94567 6.29627C5.87242 6.4059 5.83332 6.53479 5.83332 6.66665C5.83332 6.84346 5.90355 7.01303 6.02858 7.13805C6.1536 7.26308 6.32317 7.33331 6.49998 7.33331ZM10.5 7.33331C10.6318 7.33331 10.7607 7.29421 10.8704 7.22096C10.98 7.14771 11.0654 7.04359 11.1159 6.92177C11.1664 6.79995 11.1796 6.66591 11.1538 6.53659C11.1281 6.40727 11.0646 6.28848 10.9714 6.19524C10.8782 6.10201 10.7594 6.03851 10.63 6.01279C10.5007 5.98707 10.3667 6.00027 10.2449 6.05073C10.123 6.10119 10.0189 6.18663 9.94567 6.29627C9.87241 6.4059 9.83332 6.53479 9.83332 6.66665C9.83332 6.84346 9.90355 7.01303 10.0286 7.13805C10.1536 7.26308 10.3232 7.33331 10.5 7.33331ZM11.1666 9.33331C11.1666 9.1565 11.0964 8.98693 10.9714 8.86191C10.8464 8.73688 10.6768 8.66665 10.5 8.66665C10.3232 8.66665 10.1536 8.73688 10.0286 8.86191C9.90355 8.98693 9.83332 9.1565 9.83332 9.33331H9.16665C9.16665 9.1565 9.09641 8.98693 8.97139 8.86191C8.84636 8.73688 8.67679 8.66665 8.49998 8.66665C8.32317 8.66665 8.1536 8.73688 8.02858 8.86191C7.90355 8.98693 7.83332 9.1565 7.83332 9.33331H7.16665C7.16665 9.1565 7.09641 8.98693 6.97139 8.86191C6.84636 8.73688 6.67679 8.66665 6.49998 8.66665C6.32317 8.66665 6.1536 8.73688 6.02858 8.86191C5.90355 8.98693 5.83332 9.1565 5.83332 9.33331C5.6565 9.33331 5.48694 9.40355 5.36191 9.52858C5.23689 9.6536 5.16665 9.82317 5.16665 9.99998C5.16665 10.1768 5.23689 10.3464 5.36191 10.4714C5.48694 10.5964 5.6565 10.6666 5.83332 10.6666C5.83332 10.8435 5.90355 11.013 6.02858 11.1381C6.1536 11.2631 6.32317 11.3333 6.49998 11.3333C6.67679 11.3333 6.84636 11.2631 6.97139 11.1381C7.09641 11.013 7.16665 10.8435 7.16665 10.6666H7.83332C7.83332 10.8435 7.90355 11.013 8.02858 11.1381C8.1536 11.2631 8.32317 11.3333 8.49998 11.3333C8.67679 11.3333 8.84636 11.2631 8.97139 11.1381C9.09641 11.013 9.16665 10.8435 9.16665 10.6666H9.83332C9.83332 10.8435 9.90355 11.013 10.0286 11.1381C10.1536 11.2631 10.3232 11.3333 10.5 11.3333C10.6768 11.3333 10.8464 11.2631 10.9714 11.1381C11.0964 11.013 11.1666 10.8435 11.1666 10.6666C11.3435 10.6666 11.513 10.5964 11.6381 10.4714C11.7631 10.3464 11.8333 10.1768 11.8333 9.99998C11.8333 9.82317 11.7631 9.6536 11.6381 9.52858C11.513 9.40355 11.3435 9.33331 11.1666 9.33331ZM8.49998 1.33331C7.18144 1.33331 5.89251 1.72431 4.79618 2.45685C3.69985 3.18939 2.84537 4.23058 2.34079 5.44876C1.8362 6.66693 1.70418 8.00738 1.96141 9.30058C2.21865 10.5938 2.85359 11.7817 3.78594 12.714C4.71829 13.6464 5.90617 14.2813 7.19938 14.5385C8.49259 14.7958 9.83303 14.6638 11.0512 14.1592C12.2694 13.6546 13.3106 12.8001 14.0431 11.7038C14.7757 10.6075 15.1666 9.31852 15.1666 7.99998C15.1666 7.1245 14.9942 6.25759 14.6592 5.44876C14.3241 4.63992 13.8331 3.90499 13.214 3.28593C12.595 2.66688 11.86 2.17581 11.0512 1.84078C10.2424 1.50575 9.37546 1.33331 8.49998 1.33331ZM8.49998 13.3333C7.44515 13.3333 6.414 13.0205 5.53694 12.4345C4.65988 11.8484 3.97629 11.0155 3.57263 10.041C3.16896 9.06642 3.06334 7.99406 3.26913 6.9595C3.47492 5.92493 3.98287 4.97462 4.72875 4.22874C5.47463 3.48286 6.42494 2.97491 7.4595 2.76912C8.49407 2.56334 9.56642 2.66895 10.541 3.07262C11.5155 3.47629 12.3485 4.15988 12.9345 5.03694C13.5205 5.914 13.8333 6.94515 13.8333 7.99998C13.8333 9.41447 13.2714 10.771 12.2712 11.7712C11.271 12.7714 9.91447 13.3333 8.49998 13.3333Z" />
</svg>
